<svg id="Layer_1" data-name="Layer 1" xmlns="http://www.w3.org/2000/svg" viewBox="0 0 512 512"><defs><style>.cls-1,.cls-2,.cls-4,.cls-5,.cls-6,.cls-7,.cls-8{fill-rule:evenodd;}.cls-2{fill:#03acfa;}.cls-3{fill:#5fc9fa;}.cls-4{fill:#7ab8e7;}.cls-5{fill:#5eade5;}.cls-6{fill:#48a0e0;}.cls-7{fill:#318fd7;}.cls-8{fill:gray;}</style></defs><title>a</title><path class="cls-1" d="M196.468,340.6a206.206,206.206,0,0,1-23.877,4.754,259.03,259.03,0,0,1-35.961,2.463c-30.122,0-57.522-4.965-77.469-12.993-21.613-8.7-35.014-21.367-35.121-35.959q0-.089,0-.177V65.129h0v0c0-.058,0-.116,0-.175.107-14.592,13.507-27.261,35.121-35.959C79.108,20.965,106.508,16,136.63,16s57.522,4.965,77.469,12.993c21.609,8.7,35.008,21.361,35.122,35.948,0,.063,0,.125,0,.188V206.948H476.581a11.4,11.4,0,0,1,11.382,11.382v57.427a11.4,11.4,0,0,1-11.382,11.382h-29.67v24.239h29.67a11.4,11.4,0,0,1,11.382,11.382v57.427a11.4,11.4,0,0,1-11.382,11.382h-29.67v24.24h29.67a11.4,11.4,0,0,1,11.382,11.382v57.427A11.4,11.4,0,0,1,476.581,496H207.85a11.354,11.354,0,0,1-8.044-3.338,6.626,6.626,0,0,1-.464-.519,11.3,11.3,0,0,1-2.874-7.525V427.191a11.4,11.4,0,0,1,11.382-11.382h29.669v-24.24H207.85a11.354,11.354,0,0,1-8.044-3.338,6.437,6.437,0,0,1-.464-.518,11.306,11.306,0,0,1-2.874-7.526Z"/><path class="cls-2" d="M475.187,428.585H209.244v54.639H475.187V428.585ZM318.068,450.74a6.388,6.388,0,0,1,0-12.776h10.9a6.388,6.388,0,1,1,0,12.776Zm0,23.106a6.388,6.388,0,0,1,0-12.776h10.9a6.388,6.388,0,1,1,0,12.776ZM287.5,450.74a6.388,6.388,0,1,1,0-12.776h10.9a6.388,6.388,0,0,1,0,12.776Zm0,23.106a6.388,6.388,0,1,1,0-12.776h10.9a6.388,6.388,0,0,1,0,12.776ZM256.927,450.74a6.388,6.388,0,0,1,0-12.776h10.9a6.388,6.388,0,0,1,0,12.776Zm0,23.106a6.388,6.388,0,0,1,0-12.776h10.9a6.388,6.388,0,0,1,0,12.776Zm-30.57-23.106a6.388,6.388,0,0,1,0-12.776h10.9a6.388,6.388,0,1,1,0,12.776Zm0,23.106a6.388,6.388,0,0,1,0-12.776h10.9a6.388,6.388,0,0,1,0,12.776Zm144.872-35.865a17.925,17.925,0,1,1-12.674,5.25,17.87,17.87,0,0,1,12.674-5.25Zm81.042,0a17.925,17.925,0,1,1-12.674,5.25,17.871,17.871,0,0,1,12.674-5.25Zm-40.521,0a17.925,17.925,0,1,1-12.674,5.25A17.871,17.871,0,0,1,411.75,437.981Z"/><path class="cls-2" d="M475.187,324.154H209.244v54.639H475.187V324.154ZM318.068,346.309a6.388,6.388,0,0,1,0-12.776h10.9a6.388,6.388,0,1,1,0,12.776Zm0,23.106a6.388,6.388,0,0,1,0-12.776h10.9a6.388,6.388,0,1,1,0,12.776ZM287.5,346.309a6.388,6.388,0,1,1,0-12.776h10.9a6.388,6.388,0,0,1,0,12.776Zm0,23.106a6.388,6.388,0,1,1,0-12.776h10.9a6.388,6.388,0,1,1,0,12.776Zm-30.571-23.106a6.388,6.388,0,1,1,0-12.776h10.9a6.388,6.388,0,1,1,0,12.776Zm0,23.106a6.388,6.388,0,1,1,0-12.776h10.9a6.388,6.388,0,1,1,0,12.776Zm-30.57-23.106a6.388,6.388,0,0,1,0-12.776h10.9a6.388,6.388,0,0,1,0,12.776Zm0,23.106a6.388,6.388,0,0,1,0-12.776h10.9a6.388,6.388,0,0,1,0,12.776ZM452.271,333.55A17.925,17.925,0,1,1,439.6,338.8a17.871,17.871,0,0,1,12.674-5.25Zm-40.521,0a17.925,17.925,0,1,1-12.674,5.25,17.871,17.871,0,0,1,12.674-5.25Zm-40.521,0a17.925,17.925,0,1,1-12.674,5.25A17.871,17.871,0,0,1,371.229,333.55Z"/><path class="cls-2" d="M475.187,219.724H209.244v54.639H475.187V219.724ZM318.068,241.878a6.388,6.388,0,0,1,0-12.775h10.9a6.388,6.388,0,1,1,0,12.775Zm0,23.106a6.388,6.388,0,0,1,0-12.776h10.9a6.388,6.388,0,0,1,0,12.776ZM287.5,241.878a6.388,6.388,0,1,1,0-12.775h10.9a6.388,6.388,0,1,1,0,12.775Zm0,23.106a6.388,6.388,0,1,1,0-12.776h10.9a6.388,6.388,0,0,1,0,12.776Zm-30.571-23.106a6.388,6.388,0,1,1,0-12.775h10.9a6.388,6.388,0,1,1,0,12.775Zm0,23.106a6.388,6.388,0,0,1,0-12.776h10.9a6.388,6.388,0,0,1,0,12.776Zm-30.57-23.106a6.388,6.388,0,1,1,0-12.775h10.9a6.388,6.388,0,1,1,0,12.775Zm0,23.106a6.388,6.388,0,0,1,0-12.776h10.9a6.388,6.388,0,1,1,0,12.776Zm225.914-35.865A17.926,17.926,0,1,1,439.6,234.37a17.868,17.868,0,0,1,12.674-5.251Zm-40.521,0a17.926,17.926,0,1,1-12.674,5.251,17.868,17.868,0,0,1,12.674-5.251Zm-40.521,0a17.926,17.926,0,1,1-12.674,5.251A17.866,17.866,0,0,1,371.229,229.119Z"/><rect class="cls-3" x="250.295" y="391.569" width="183.84" height="24.24"/><rect class="cls-3" x="250.295" y="287.139" width="183.84" height="24.24"/><path class="cls-4" d="M209.358,40.82c-18.491-7.441-44.195-12.044-72.728-12.044S82.393,33.379,63.9,40.82C47.165,47.556,36.813,56.191,36.813,65.129h0c0,8.938,10.353,17.573,27.089,24.309,18.491,7.441,44.195,12.044,72.728,12.044s54.237-4.6,72.728-12.044C226.1,82.7,236.447,74.067,236.447,65.129S226.1,47.556,209.358,40.82Z"/><path class="cls-5" d="M236.447,142.983V88.491c-5.784,4.847-13.355,9.155-22.349,12.774-19.947,8.028-47.346,12.993-77.469,12.993s-57.522-4.965-77.469-12.993C50.167,97.646,42.6,93.338,36.813,88.491v54.492c0,8.938,10.352,17.574,27.089,24.309,18.491,7.442,44.195,12.045,72.728,12.045s54.237-4.6,72.728-12.045c16.737-6.735,27.089-15.371,27.089-24.309ZM56.9,138.656a6.377,6.377,0,1,1,4.242-12.027l14.527,5.145A6.376,6.376,0,1,1,71.423,143.8Z"/><path class="cls-6" d="M36.813,220.837c0,8.938,10.352,17.574,27.089,24.309,18.491,7.442,44.195,12.045,72.728,12.045a246.5,246.5,0,0,0,34.214-2.313,188.831,188.831,0,0,0,25.624-5.339V218.33a11.4,11.4,0,0,1,11.382-11.382h28.6v-40.6c-5.784,4.847-13.355,9.155-22.349,12.775-19.947,8.027-47.346,12.993-77.469,12.993s-57.522-4.966-77.469-12.993c-8.994-3.62-16.564-7.928-22.348-12.775v54.492ZM56.9,219.278a6.377,6.377,0,1,1,4.242-12.028L75.664,212.4a6.376,6.376,0,1,1-4.241,12.027Z"/><path class="cls-7" d="M36.813,298.692c0,8.938,10.353,17.573,27.089,24.309,18.491,7.441,44.195,12.044,72.728,12.044a246.349,246.349,0,0,0,34.214-2.313,188.836,188.836,0,0,0,25.624-5.338V322.76a11.4,11.4,0,0,1,11.382-11.382h29.669V287.139H207.85a11.351,11.351,0,0,1-8.044-3.339,6.437,6.437,0,0,1-.464-.518,11.3,11.3,0,0,1-2.874-7.525V262.75a206.206,206.206,0,0,1-23.877,4.754,259.03,259.03,0,0,1-35.961,2.463c-30.122,0-57.522-4.966-77.469-12.993-8.994-3.62-16.564-7.927-22.348-12.774v54.492ZM56.9,299.9a6.377,6.377,0,0,1,4.242-12.028l14.527,5.146a6.376,6.376,0,1,1-4.241,12.027Z"/><path class="cls-8" d="M374.869,243.4a5.148,5.148,0,1,0,1.508,3.64A5.132,5.132,0,0,0,374.869,243.4Z"/><path class="cls-8" d="M415.39,243.4a5.148,5.148,0,1,0,1.508,3.64A5.132,5.132,0,0,0,415.39,243.4Z"/><path class="cls-8" d="M455.911,243.4a5.148,5.148,0,1,0,1.508,3.64A5.132,5.132,0,0,0,455.911,243.4Z"/><path class="cls-8" d="M374.869,347.833a5.15,5.15,0,1,0,1.508,3.641A5.131,5.131,0,0,0,374.869,347.833Z"/><path class="cls-8" d="M415.39,347.833a5.15,5.15,0,1,0,1.508,3.641A5.131,5.131,0,0,0,415.39,347.833Z"/><path class="cls-8" d="M455.911,347.833a5.15,5.15,0,1,0,1.508,3.641A5.131,5.131,0,0,0,455.911,347.833Z"/><path class="cls-8" d="M374.869,452.264a5.148,5.148,0,1,0,1.508,3.641A5.131,5.131,0,0,0,374.869,452.264Z"/><path class="cls-8" d="M415.39,452.264a5.148,5.148,0,1,0,1.508,3.641A5.131,5.131,0,0,0,415.39,452.264Z"/><path class="cls-8" d="M455.911,452.264a5.148,5.148,0,1,0,1.508,3.641A5.131,5.131,0,0,0,455.911,452.264Z"/></svg>